Coordinates
version=1
nRows=43
nColumns=12
inDegrees=yes

Units are S.I. units (second, meters, Newtons, ...)
Angles are in degrees

endheader
time	SC_y	SC_z	SC_x	AC_y	AC_z	AC_x	GH_y	GH_z	GH_yy	EL_x	PS_y
       0.0              -34.25         -3.916          19.01          39.89          1.823           9.42         -173.4           40.4          15.83          88.56          123.7
   0.02237              -34.25         -3.909          19.02          39.89          1.821          9.422         -173.4           40.4          15.82          88.56          123.7
   0.04475              -34.25         -3.903          19.02          39.89          1.819          9.423         -173.3           40.4          15.82          88.57          123.7
   0.06712              -34.25         -3.896          19.02           39.9          1.817          9.425         -173.3           40.4           15.8          88.58          123.7
    0.0895              -34.24         -3.888          19.03           39.9          1.815          9.427         -173.3           40.4          15.79          88.58          123.7
    0.1119              -34.24          -3.88          19.03           39.9          1.812          9.429         -173.3           40.4          15.78          88.59          123.7
    0.1342              -34.24         -3.872          19.04           39.9          1.809          9.431         -173.3           40.4          15.77           88.6          123.7
    0.1566              -34.23         -3.863          19.04          39.91          1.807          9.433         -173.3          40.39          15.76           88.6          123.7
     0.179              -34.23         -3.853          19.05          39.91          1.804          9.436         -173.3          40.39          15.74          88.61          123.7
    0.2014              -34.23         -3.843          19.05          39.91            1.8          9.438         -173.3          40.39          15.73          88.62          123.7
    0.2237              -34.22         -3.832          19.06          39.91          1.797          9.441         -173.3          40.39          15.71          88.63          123.7
    0.2461              -34.22          -3.82          19.06          39.92          1.793          9.444         -173.3          40.39          15.69          88.64          123.7
    0.2685              -34.21         -3.807          19.07          39.92          1.789          9.447         -173.3          40.39          15.67          88.65          123.7
    0.2909              -34.21         -3.793          19.08          39.93          1.785          9.451         -173.3          40.39          15.65          88.67          123.7
    0.3132               -34.2         -3.777          19.09          39.93           1.78          9.454         -173.3          40.38          15.63          88.68          123.7
    0.3356              -34.19         -3.761           19.1          39.93          1.775          9.458         -173.3          40.38           15.6          88.69          123.7
     0.358              -34.19         -3.743          19.11          39.94           1.77          9.463         -173.3          40.38          15.58          88.71          123.8
    0.3804              -34.18         -3.724          19.12          39.94          1.763          9.468         -173.2          40.38          15.55          88.73          123.8
    0.4027              -34.17         -3.702          19.13          39.95          1.757          9.473         -173.2          40.38          15.51          88.75          123.8
    0.4251              -34.16         -3.679          19.14          39.96           1.75          9.479         -173.2          40.37          15.48          88.77          123.8
    0.4475              -34.15         -3.653          19.15          39.96          1.742          9.485         -173.2          40.37          15.44          88.79          123.8
    0.4699              -34.14         -3.625          19.17          39.97          1.733          9.492         -173.2          40.37           15.4          88.81          123.8
    0.4922              -34.13         -3.594          19.18          39.98          1.723            9.5         -173.2          40.36          15.35          88.84          123.8
    0.5146              -34.11          -3.56           19.2          39.99          1.713          9.508         -173.1          40.36           15.3          88.87          123.8
     0.537               -34.1         -3.522          19.22           40.0          1.701          9.517         -173.1          40.36          15.24          88.91          123.9
    0.5594              -34.08         -3.479          19.25          40.01          1.688          9.528         -173.1          40.35          15.18          88.94          123.9
    0.5817              -34.06         -3.431          19.27          40.03          1.673           9.54         -173.1          40.35          15.11          88.99          123.9
    0.6041              -34.04         -3.377           19.3          40.04          1.656          9.553         -173.0          40.34          15.03          89.03          123.9
    0.6265              -34.01         -3.316          19.33          40.06          1.637          9.568         -173.0          40.33          14.94          89.09          124.0
    0.6489              -33.99         -3.247          19.37          40.08          1.616          9.585         -172.9          40.32          14.83          89.15          124.0
    0.6712              -33.95         -3.169          19.41           40.1          1.591          9.604         -172.9          40.32          14.72          89.22          124.0
    0.6936              -33.92         -3.078          19.46          40.13          1.563          9.627         -172.8           40.3          14.58           89.3          124.1
     0.716              -33.87         -2.974          19.52          40.16          1.531          9.652         -172.8          40.29          14.42          89.39          124.1
    0.7384              -33.83         -2.852          19.58          40.19          1.493          9.682         -172.7          40.28          14.24           89.5          124.2
    0.7607              -33.77          -2.71          19.66          40.23          1.449          9.717         -172.6          40.26          14.03          89.62          124.2
    0.7831               -33.7         -2.543          19.75          40.28          1.397          9.759         -172.5          40.24          13.78          89.77          124.3
    0.8055              -33.62         -2.344          19.85          40.33          1.335          9.808         -172.4          40.22          13.48          89.94          124.4
    0.8279              -33.52         -2.106          19.98           40.4          1.262          9.866         -172.3          40.19          13.12          90.15          124.5
    0.8502              -33.41         -1.817          20.13          40.48          1.172          9.937         -172.1          40.16          12.69          90.41          124.6
    0.8726              -33.27         -1.465          20.32          40.58          1.063          10.02         -171.9          40.12          12.17          90.72          124.8
     0.895              -33.09          -1.03          20.55           40.7         0.9278          10.13         -171.6          40.07          11.51           91.1          125.0
    0.9174              -32.87         -0.488          20.84          40.86         0.7595          10.27         -171.3          40.01           10.7          91.58          125.3
    0.9397               -32.6          0.195          21.21          41.05         0.5476          10.43         -170.9          39.93          9.681          92.18          125.6
